<?xml version="1.0" encoding="utf-8"?>
<!-- Generator: Adobe Illustrator 26.3.1, SVG Export Plug-In . SVG Version: 6.00 Build 0)  -->
<svg version="1.1" id="Objects" xmlns="http://www.w3.org/2000/svg" xmlns:xlink="http://www.w3.org/1999/xlink" x="0px" y="0px"
	 viewBox="0 0 800 800" style="enable-background:new 0 0 800 800;" xml:space="preserve">
<style type="text/css">
	.st0{fill:#E8E8E8;}
</style>
<g>
	<path class="st0" d="M420.18,163.13c-0.43-1.1-0.94-1.88-1.76-2.7c-0.82-0.82-1.61-1.33-2.7-1.76c-0.83-0.32-2.07-0.71-4.37-0.81
		c-2.48-0.11-3.22-0.14-9.5-0.14c-6.28,0-7.02,0.02-9.5,0.14c-2.29,0.1-3.54,0.49-4.37,0.81c-1.1,0.43-1.88,0.94-2.7,1.76
		c-0.82,0.82-1.33,1.61-1.76,2.7c-0.32,0.83-0.71,2.07-0.81,4.37c-0.11,2.48-0.14,3.22-0.14,9.5c0,6.28,0.02,7.02,0.14,9.5
		c0.1,2.29,0.49,3.54,0.81,4.37c0.43,1.1,0.94,1.88,1.76,2.7c0.82,0.82,1.61,1.33,2.7,1.76c0.83,0.32,2.07,0.71,4.37,0.81
		c2.48,0.11,3.22,0.14,9.5,0.14c6.28,0,7.02-0.02,9.5-0.14c2.29-0.1,3.54-0.49,4.37-0.81c1.1-0.43,1.88-0.94,2.7-1.76
		c0.82-0.82,1.33-1.61,1.76-2.7c0.32-0.83,0.71-2.07,0.81-4.37c0.11-2.48,0.14-3.22,0.14-9.5c0-6.28-0.02-7.02-0.14-9.5
		C420.89,165.2,420.5,163.96,420.18,163.13z M401.85,189.08c-6.67,0-12.08-5.41-12.08-12.08c0-6.67,5.41-12.08,12.08-12.08
		c6.67,0,12.08,5.41,12.08,12.08C413.92,183.67,408.52,189.08,401.85,189.08z M414.4,167.27c-1.56,0-2.82-1.26-2.82-2.82
		c0-1.56,1.26-2.82,2.82-2.82c1.56,0,2.82,1.26,2.82,2.82C417.22,166,415.96,167.27,414.4,167.27z"/>
	<path class="st0" d="M401.85,169.16c-4.33,0-7.84,3.51-7.84,7.84c0,4.33,3.51,7.84,7.84,7.84s7.84-3.51,7.84-7.84
		C409.69,172.67,406.18,169.16,401.85,169.16z"/>
	<path class="st0" d="M401.8,135.47c-22.47,0-40.68,18.21-40.68,40.68c0,22.47,18.21,40.68,40.68,40.68
		c22.47,0,40.68-18.21,40.68-40.68C442.49,153.68,424.27,135.47,401.8,135.47z M425.22,186.7c-0.11,2.5-0.51,4.21-1.09,5.71
		c-0.6,1.55-1.41,2.86-2.71,4.17c-1.31,1.31-2.62,2.11-4.17,2.71c-1.5,0.58-3.21,0.98-5.71,1.09c-2.51,0.11-3.31,0.14-9.7,0.14
		c-6.39,0-7.19-0.03-9.7-0.14c-2.5-0.11-4.21-0.51-5.71-1.09c-1.55-0.6-2.86-1.41-4.17-2.71c-1.31-1.31-2.11-2.62-2.71-4.17
		c-0.58-1.5-0.98-3.21-1.09-5.71c-0.11-2.51-0.14-3.31-0.14-9.7c0-6.39,0.03-7.19,0.14-9.7c0.11-2.5,0.51-4.21,1.09-5.71
		c0.6-1.55,1.41-2.86,2.71-4.17c1.31-1.31,2.62-2.11,4.17-2.71c1.5-0.58,3.21-0.98,5.71-1.09c2.51-0.11,3.31-0.14,9.7-0.14
		c6.39,0,7.19,0.03,9.7,0.14c2.5,0.11,4.21,0.51,5.71,1.09c1.55,0.6,2.86,1.41,4.17,2.71c1.31,1.31,2.11,2.62,2.71,4.17
		c0.58,1.5,0.98,3.21,1.09,5.71c0.11,2.51,0.14,3.31,0.14,9.7C425.37,183.39,425.34,184.19,425.22,186.7z"/>
</g>
</svg>
