<?xml version="1.0" standalone="no"?>
<!DOCTYPE svg PUBLIC "-//W3C//DTD SVG 20010904//EN"
 "http://www.w3.org/TR/2001/REC-SVG-20010904/DTD/svg10.dtd">
<svg version="1.0" xmlns="http://www.w3.org/2000/svg"
 width="1200.000000pt" height="1200.000000pt" viewBox="0 0 1200.000000 1200.000000"
 preserveAspectRatio="xMidYMid meet">

<g transform="translate(0.000000,1200.000000) scale(0.100000,-0.100000)"
fill="#000000" stroke="none">
<path d="M5610 11420 c-1176 -91 -2247 -525 -3150 -1279 -254 -212 -584 -555
-797 -830 -650 -837 -1030 -1802 -1135 -2881 -17 -178 -17 -802 0 -970 75
-731 249 -1342 559 -1960 281 -562 584 -983 1032 -1431 463 -462 901 -775
1485 -1059 650 -317 1309 -491 2046 -541 218 -15 678 -7 890 15 1562 164 2943
950 3872 2206 624 844 987 1841 1059 2910 13 193 7 676 -11 850 -73 733 -272
1407 -596 2028 -671 1284 -1811 2247 -3187 2691 -334 108 -764 197 -1137 237
-180 19 -751 27 -930 14z m865 -265 c1212 -111 2329 -635 3199 -1500 415 -414
736 -861 991 -1380 328 -668 507 -1358 544 -2092 11 -233 1 -283 -59 -283 -37
0 -86 49 -99 98 -6 20 -17 139 -25 263 -34 486 -103 839 -251 1284 -248 745
-627 1366 -1185 1939 -547 562 -1174 966 -1900 1223 -113 40 -462 145 -465
140 -1 -1 -7 -38 -14 -82 -25 -156 -94 -333 -189 -480 -68 -105 -258 -288
-371 -357 -202 -124 -410 -181 -656 -181 -246 0 -454 57 -656 181 -113 69
-303 252 -371 357 -96 148 -165 325 -190 483 l-13 83 -35 -6 c-59 -11 -317
-94 -475 -152 -854 -316 -1556 -812 -2138 -1508 -709 -848 -1124 -1919 -1173
-3025 -3 -80 -10 -162 -15 -182 -13 -49 -52 -80 -98 -76 -31 3 -38 8 -48 38
-27 79 -9 431 37 751 112 767 399 1517 823 2154 202 303 380 519 657 795 204
205 354 337 545 481 635 479 1336 794 2105 949 284 57 476 81 820 104 112 8
540 -4 705 -19z m-2702 -1381 c102 -20 214 -58 311 -106 116 -58 146 -59 356
-5 288 74 531 99 765 78 149 -13 189 -24 210 -54 22 -31 18 -61 -10 -96 -14
-16 -120 -94 -236 -172 -146 -99 -215 -151 -226 -172 -15 -30 -15 -32 11 -54
15 -13 39 -26 54 -29 88 -19 216 -60 277 -88 313 -146 466 -481 465 -1019 -1
-194 -25 -374 -56 -408 -23 -25 -78 -25 -101 0 -10 11 -44 100 -77 198 -32 98
-76 216 -97 261 -95 205 -220 317 -399 358 -76 17 -120 10 -120 -20 0 -14 9
-27 122 -182 161 -220 285 -564 304 -841 6 -81 4 -90 -16 -115 -39 -51 -92
-35 -136 39 -36 63 -196 275 -252 336 -57 60 -93 63 -121 10 -6 -13 -29 -187
-51 -388 -43 -400 -61 -505 -111 -640 -38 -104 -79 -155 -126 -155 -39 0 -61
26 -78 92 -15 57 -94 425 -151 703 -60 291 -103 472 -129 541 -51 134 -110
214 -160 214 -58 0 -283 -178 -476 -378 -299 -309 -446 -507 -597 -807 -136
-271 -177 -472 -189 -925 -11 -419 33 -848 142 -1395 127 -634 307 -1214 557
-1800 139 -325 164 -365 221 -365 29 0 92 60 646 621 679 685 847 848 1249
1209 323 289 401 350 447 350 43 0 78 -25 289 -209 238 -207 660 -615 1400
-1354 336 -334 620 -610 633 -613 52 -14 80 29 210 326 267 608 480 1301 597
1945 88 482 120 803 120 1200 -1 438 -28 624 -131 880 -83 207 -224 440 -399
660 -196 245 -623 631 -721 651 -45 9 -89 -35 -134 -131 -82 -178 -122 -329
-194 -740 -97 -545 -115 -623 -160 -665 -23 -22 -51 -23 -81 -3 -19 13 -80
143 -103 218 -25 79 -96 565 -112 755 -5 69 -14 141 -21 160 -21 68 -59 87
-106 54 -23 -16 -259 -327 -301 -397 -36 -59 -87 -63 -116 -7 -13 26 -14 45
-5 138 33 340 136 620 315 857 76 101 98 150 74 167 -8 5 -43 7 -79 5 -127 -8
-253 -98 -338 -242 -52 -89 -131 -273 -188 -440 -25 -71 -52 -137 -61 -147
-22 -24 -75 -23 -97 1 -11 12 -26 63 -38 133 -28 152 -30 467 -5 608 84 462
268 680 652 770 102 23 158 52 153 77 -4 24 -98 98 -285 223 -162 110 -198
142 -210 188 -9 35 33 73 94 83 89 16 462 23 568 10 128 -15 263 -43 395 -81
58 -16 119 -30 136 -30 17 0 71 20 121 44 203 99 344 131 578 130 145 0 188
-4 295 -27 215 -46 250 -62 250 -118 0 -39 -15 -50 -164 -120 -155 -72 -213
-109 -305 -197 -135 -127 -81 -145 214 -71 131 33 356 33 470 1 251 -72 522
-266 660 -473 111 -166 188 -364 183 -472 -3 -52 -7 -63 -30 -80 l-28 -21 -68
33 c-80 39 -116 39 -120 0 -2 -14 10 -82 27 -150 42 -173 51 -237 51 -364 0
-83 -6 -135 -25 -213 -30 -122 -47 -160 -81 -173 -53 -20 -73 3 -164 188 -130
264 -172 302 -226 204 -31 -59 -60 -73 -135 -69 -53 3 -54 2 -57 -25 -3 -21
20 -69 86 -185 270 -471 417 -879 541 -1497 74 -371 119 -707 147 -1112 13
-191 15 -335 11 -728 -6 -652 -24 -836 -81 -851 -36 -9 -57 -2 -78 26 -17 24
-18 37 -8 255 12 295 13 1041 0 1300 -18 367 -81 830 -165 1205 -124 556 -341
1092 -582 1439 -184 263 -467 543 -720 712 -43 28 -84 59 -90 67 -20 25 -15
61 13 88 21 22 31 25 62 19 20 -3 200 -89 399 -190 199 -101 378 -187 398
-191 l35 -6 -6 33 c-10 56 -133 227 -256 356 -83 88 -94 116 -62 161 32 46 66
32 265 -104 101 -70 206 -145 233 -168 57 -48 150 -158 229 -271 48 -69 93
-114 101 -103 2 2 8 18 14 37 12 34 3 61 -201 593 -40 104 4 145 131 126 69
-10 92 -2 92 34 0 29 -17 56 -77 125 -121 139 -317 264 -463 297 -218 48 -337
27 -825 -148 -105 -38 -143 -40 -177 -10 -28 26 -33 79 -14 148 31 111 73 172
212 316 72 74 134 143 137 153 18 49 -77 75 -215 57 -148 -18 -246 -53 -375
-132 -110 -67 -141 -70 -258 -25 -155 61 -292 89 -495 102 -87 6 -98 5 -122
-14 -18 -14 -24 -27 -21 -41 3 -11 55 -57 117 -102 136 -100 264 -206 299
-248 35 -41 38 -107 6 -136 -19 -17 -44 -20 -258 -25 -204 -6 -246 -10 -306
-29 -109 -34 -184 -79 -260 -155 -103 -103 -152 -202 -180 -367 -15 -82 -15
-92 0 -115 24 -36 46 -24 155 81 135 130 251 194 425 232 64 14 124 17 294 16
195 -1 217 -3 240 -20 50 -37 35 -93 -37 -138 -213 -133 -292 -195 -378 -296
-64 -75 -134 -204 -134 -247 0 -41 18 -41 134 0 64 22 98 29 122 24 64 -12 63
-4 124 -520 37 -316 34 -298 65 -315 37 -20 48 -3 75 110 31 130 181 627 219
724 31 81 76 157 138 234 29 36 40 42 72 42 32 0 65 -19 229 -136 106 -75 243
-182 304 -238 365 -330 700 -809 822 -1177 79 -237 101 -422 101 -874 0 -366
-8 -480 -56 -818 -115 -814 -380 -1729 -722 -2497 -147 -331 -195 -410 -247
-410 -34 0 -115 76 -400 376 -364 383 -911 929 -1255 1255 -264 249 -615 567
-665 602 -31 22 -79 22 -110 0 -33 -22 -465 -410 -600 -538 -435 -412 -964
-939 -1326 -1321 -172 -183 -329 -341 -347 -353 -96 -59 -124 -21 -334 454
-585 1319 -889 2995 -708 3901 32 158 73 280 145 429 239 495 693 1007 1144
1289 87 55 127 66 170 50 19 -7 107 -147 161 -253 50 -101 93 -234 170 -530
70 -270 72 -276 103 -304 20 -18 21 -18 36 5 20 31 39 150 76 473 35 299 42
324 100 338 27 7 56 2 130 -21 52 -16 100 -27 107 -25 38 15 17 71 -81 218
-84 126 -223 246 -385 331 -94 50 -117 135 -44 166 18 8 104 12 243 12 191 1
225 -2 302 -21 166 -42 289 -114 413 -238 81 -81 111 -97 132 -69 30 41 3 196
-54 312 -51 103 -180 236 -273 280 -110 53 -165 63 -405 71 -240 8 -277 16
-289 66 -15 60 28 105 357 364 96 76 107 100 55 127 -62 32 -312 -7 -576 -90
-63 -20 -129 -36 -147 -36 -18 0 -57 13 -86 30 -225 125 -333 160 -493 160
-109 0 -146 -13 -146 -50 0 -10 52 -74 116 -142 155 -165 199 -226 224 -305
28 -91 27 -147 -5 -178 -41 -42 -87 -33 -325 60 -465 182 -771 148 -1067 -119
-68 -61 -143 -162 -143 -191 0 -29 24 -38 105 -40 88 -3 92 -3 109 -21 28 -27
18 -80 -38 -212 -60 -139 -167 -428 -168 -452 0 -8 4 -28 11 -43 16 -41 34
-27 154 126 58 73 146 172 197 220 93 89 309 241 408 286 l52 25 28 -21 c36
-26 40 -68 10 -109 -13 -18 -86 -103 -163 -190 -77 -88 -149 -178 -159 -202
-18 -39 -18 -44 -3 -59 14 -15 49 1 424 187 376 187 412 204 462 204 50 1 56
-2 70 -26 14 -25 14 -31 1 -55 -8 -15 -75 -68 -148 -118 -184 -127 -293 -218
-446 -375 -273 -281 -454 -573 -625 -1009 -201 -513 -317 -1031 -371 -1656
-32 -383 -54 -1093 -40 -1340 23 -412 24 -502 6 -529 -20 -32 -74 -36 -99 -8
-33 36 -53 282 -71 842 -5 173 10 645 29 869 85 1021 323 1879 695 2494 55 92
70 126 68 150 l-3 32 -75 5 -75 5 -38 58 c-64 97 -75 87 -216 -185 -51 -98
-102 -185 -114 -193 -29 -20 -60 -19 -81 4 -41 46 -86 231 -86 357 0 82 25
262 50 360 20 76 27 194 13 194 -5 0 -41 -9 -82 -20 -121 -32 -137 -27 -147
51 -12 94 55 274 160 431 175 262 421 449 682 519 129 35 299 31 494 -12 85
-18 178 -34 205 -34 49 0 50 1 53 31 3 27 -6 39 -62 92 -82 76 -207 153 -315
195 -133 50 -184 115 -130 166 32 30 214 71 419 95 60 7 251 -5 333 -20z
m3092 -3473 c162 -42 328 -145 482 -298 97 -95 218 -255 200 -264 -7 -3 -55
-14 -107 -24 -249 -46 -420 -131 -552 -273 -101 -110 -145 -216 -135 -327 10
-110 76 -226 154 -272 39 -22 57 -27 112 -26 83 2 167 30 426 143 110 48 236
99 280 114 241 79 464 75 648 -13 76 -36 106 -67 114 -114 5 -31 1 -40 -25
-67 -38 -38 -66 -38 -140 -1 -98 49 -166 65 -277 64 -150 -2 -285 -43 -593
-179 -252 -113 -308 -129 -442 -129 -107 0 -119 2 -168 28 -159 84 -276 285
-276 472 1 275 231 558 560 691 l97 39 -54 48 c-121 109 -240 178 -359 208
-39 10 -117 14 -265 13 -195 0 -217 -2 -310 -27 -342 -92 -608 -331 -838 -752
-30 -55 -82 -149 -115 -210 -33 -60 -79 -144 -101 -185 -98 -178 -196 -273
-325 -312 -60 -18 -84 -20 -185 -15 -195 10 -284 46 -451 182 -137 111 -174
129 -270 128 -83 0 -165 -19 -276 -64 -91 -35 -118 -36 -149 -4 -32 31 -35
101 -5 132 24 27 155 77 268 104 69 17 108 20 187 16 144 -6 213 -38 370 -171
101 -86 177 -123 281 -137 191 -25 279 29 396 244 24 43 63 112 87 155 24 42
72 131 108 197 305 564 645 833 1148 909 17 2 118 3 225 1 159 -2 210 -7 275
-24z m-5956 -586 c38 -43 36 -35 61 -280 26 -249 56 -422 121 -684 224 -912
672 -1705 1344 -2376 817 -818 1847 -1307 3056 -1451 181 -21 665 -30 856 -15
943 74 1897 431 2658 996 198 146 357 285 556 484 271 272 416 449 615 751
470 715 744 1463 834 2280 25 221 40 274 89 307 42 28 55 29 81 3 27 -27 27
-118 0 -345 -79 -691 -273 -1324 -570 -1866 -497 -907 -1122 -1571 -1930
-2052 -613 -364 -1431 -639 -2127 -712 -738 -78 -1533 11 -2251 252 -401 134
-879 371 -1212 601 -452 312 -867 699 -1208 1125 -509 637 -850 1384 -1011
2217 -35 182 -44 249 -71 510 -29 287 -29 290 41 290 30 0 43 -7 68 -35z
m5254 -1687 c42 -22 45 -104 4 -133 -18 -13 -41 -14 -128 -9 -104 7 -106 6
-123 -17 -19 -28 -21 -63 -3 -77 6 -5 95 -14 197 -20 107 -5 196 -14 208 -21
32 -17 45 -56 30 -89 -24 -50 -45 -53 -275 -49 -200 3 -214 5 -259 28 -61 31
-84 74 -84 154 0 141 51 216 167 245 44 11 240 2 266 -12z m20 -717 c103 -8
122 -12 143 -32 31 -29 31 -63 -1 -94 l-24 -25 -246 0 c-147 0 -254 -4 -265
-10 -23 -12 -40 -68 -40 -132 0 -44 2 -47 33 -57 17 -5 145 -15 282 -21 315
-15 345 -23 345 -95 0 -60 -14 -65 -177 -65 -186 0 -476 17 -531 32 -58 15
-107 62 -122 117 -9 35 -8 63 4 143 18 112 40 161 90 206 33 28 56 37 126 44
38 5 250 -2 383 -11z m205 -857 c68 -11 92 -70 49 -119 l-23 -27 -374 -5
c-206 -2 -386 -9 -400 -14 -35 -13 -45 -32 -75 -140 -25 -88 -26 -94 -9 -106
14 -10 125 -13 515 -13 l496 0 27 -26 c34 -35 33 -64 -5 -100 l-30 -29 -542
-3 c-368 -2 -554 0 -579 8 -53 15 -78 51 -78 114 0 61 88 331 125 386 29 41
76 72 124 79 42 7 734 3 779 -5z"/>
<path d="M5605 11000 c-143 -13 -329 -38 -485 -66 -188 -34 -172 -26 -164 -92
17 -141 76 -310 150 -429 54 -87 166 -209 254 -275 89 -68 245 -143 365 -175
90 -24 118 -26 270 -26 152 0 180 2 270 26 406 109 701 435 764 846 6 40 9 76
7 78 -14 14 -361 73 -576 99 -157 19 -698 27 -855 14z"/>
</g>
</svg>
